Coordinates
version=1
nRows=12
nColumns=24
inDegrees=yes

Units are S.I. units (second, meters, Newtons, ...)
Angles are in degrees.

endheader
time	pelvis_tilt	pelvis_list	pelvis_rotation	pelvis_tx	pelvis_ty	pelvis_tz	hip_flexion_r	hip_adduction_r	hip_rotation_r	knee_angle_r	ankle_angle_r	subtalar_angle_r	mtp_angle_r	hip_flexion_l	hip_adduction_l	hip_rotation_l	knee_angle_l	ankle_angle_l	subtalar_angle_l	mtp_angle_l	lumbar_extension	lumbar_bending	lumbar_rotation
      3.81000000	     -5.45762270	      9.12896795	      1.90180328	     -0.53734421	     -0.01980823	     -0.17899365	     32.41220866	     -8.97340276	     -0.01612704	    -69.20120833	    -11.98606604	      2.85044894	     26.59780163	     11.13832857	     17.47882511	     -0.17756747	    -16.17884120	      8.11464209	      0.38448653	    -13.18450038	      5.82952588	    -11.32271457	     -1.60501541
      3.81500000	     -5.37107278	      8.88616631	      2.02268387	     -0.53151178	     -0.01916714	     -0.17917780	     32.98679049	     -8.71015050	     -0.23558948	    -68.33055366	    -11.40981680	      2.86548947	     26.39816467	     10.30032519	     17.25721211	      0.21618598	    -15.76727410	      8.37142808	      0.43460714	    -13.35931429	      5.63600559	    -11.09857439	     -1.92848103
      3.82000000	     -5.28776332	      8.64354911	      2.15780970	     -0.52568382	     -0.01858238	     -0.17936926	     33.52861411	     -8.46463856	     -0.47885070	    -67.38570218	    -10.83941399	      2.89622498	     26.14327492	      9.47665880	     17.02705674	      0.58591432	    -15.37089376	      8.63764756	      0.52649852	    -13.50391817	      5.44653300	    -10.87653041	     -2.26384413
      3.82500000	     -5.21694740	      8.39878159	      2.30002417	     -0.51986783	     -0.01806905	     -0.17958564	     34.05298096	     -8.23167324	     -0.73352867	    -66.37013424	    -10.28903368	      2.94577015	     25.84871955	      8.68043761	     16.78845690	      0.92513040	    -14.99112194	      8.91208754	      0.64448995	    -13.61501636	      5.27183775	    -10.64951939	     -2.59971341
      3.83000000	     -5.14531940	      8.15878612	      2.44886119	     -0.51404105	     -0.01761558	     -0.17978201	     34.54212176	     -8.01668046	     -1.00503386	    -65.28817220	     -9.73813206	      3.01564312	     25.49616268	      7.89218488	     16.54612480	      1.24692207	    -14.62349346	      9.19645600	      0.77280601	    -13.71218429	      5.09834343	    -10.43526848	     -2.94100556
      3.83500000	     -5.07649366	      7.92963656	      2.59300904	     -0.50824167	     -0.01723059	     -0.17998529	     35.00832504	     -7.81690816	     -1.26909822	    -64.14663399	     -9.17192654	      3.10196607	     25.08105155	      7.12246011	     16.30941109	      1.56483308	    -14.27510716	      9.46989689	      0.91095286	    -13.80985048	      4.92119315	    -10.21647107	     -3.27021592
      3.84000000	     -4.99413871	      7.71658014	      2.72412612	     -0.50241114	     -0.01692336	     -0.18014135	     35.43521248	     -7.63669416	     -1.54011427	    -62.96213377	     -8.57421546	      3.23030602	     24.53343331	      6.34063243	     16.08326238	      1.88965475	    -13.93210410	      9.78198722	      1.02143250	    -13.93510572	      4.74543140	    -10.02647200	     -3.56549442
      3.84500000	     -4.97605407	      7.47916175	      2.85700515	     -0.49660614	     -0.01668199	     -0.18031451	     35.89613796	     -7.43298161	     -1.78969061	    -61.67901047	     -8.08401654	      3.39075938	     24.15760589	      5.65818118	     15.82920108	      2.14720957	    -13.61898780	     10.03004628	      1.12038313	    -14.01022031	      4.63192326	     -9.80178840	     -3.88157126
      3.85000000	     -4.95528614	      7.25784212	      2.95616604	     -0.49078426	     -0.01652743	     -0.18046252	     36.33947784	     -7.24272360	     -2.02881958	    -60.34679397	     -7.62850046	      3.56634934	     23.80756373	      4.97266255	     15.58942926	      2.38631213	    -13.29381329	     10.28994223	      1.17746100	    -14.06871925	      4.53139589	     -9.58577786	     -4.14391362
      3.85500000	     -4.88384974	      7.05356509	      3.06750633	     -0.48497675	     -0.01638616	     -0.18056347	     36.68242506	     -7.07086141	     -2.26783087	    -58.95795856	     -7.08709435	      3.77762282	     23.35314815	      4.24400998	     15.36156712	      2.68482637	    -13.00003278	     10.55024972	      1.20391828	    -14.15977832	      4.36603371	     -9.39898732	     -4.43033831
      3.86000000	     -4.85121968	      6.85762565	      3.15874472	     -0.47919897	     -0.01632638	     -0.18062009	     37.05026624	     -6.89737195	     -2.47692441	    -57.51436048	     -6.59737250	      4.03714716	     22.92850453	      3.57409878	     15.13939919	      2.94982374	    -12.71745938	     10.77952645	      1.20117336	    -14.25941106	      4.24492770	     -9.21835095	     -4.66599925
      3.86500000	     -4.82076562	      6.67354814	      3.24061686	     -0.47344536	     -0.01632839	     -0.18065072	     37.39292087	     -6.73133994	     -2.66496464	    -56.01554058	     -6.12042680	      4.32723590	     22.53696594	      2.92111393	     14.92711958	      3.20305795	    -12.45410231	     11.00856003	      1.18281849	    -14.36167647	      4.12343665	     -9.04702383	     -4.88689256
